<svg xmlns="http://www.w3.org/2000/svg" width="900" height="540" viewBox="0 0 900 540" role="img">
<title>PPO clipping depends on the advantage sign</title><desc>Synthetic objective to maximize; eps_clip=0.2. Ratios are not forcibly bounded.</desc>
<rect width="900" height="540" fill="#ffffff"/>
<g font-family="Arial, sans-serif" fill="#172033">
<text x="35" y="35" font-size="24" font-weight="700">PPO clipping depends on the advantage sign</text>
<text x="35" y="65" font-size="15">Synthetic objective to maximize; eps_clip=0.2. Ratios are not forcibly bounded.</text>
<path d="M 85 412.00 H 865" stroke="#e3e8ef"/>
<text x="73" y="417.00" text-anchor="end" font-size="14">-1.8</text>
<path d="M 85 333.00 H 865" stroke="#e3e8ef"/>
<text x="73" y="338.00" text-anchor="end" font-size="14">-0.9</text>
<path d="M 85 254.00 H 865" stroke="#e3e8ef"/>
<text x="73" y="259.00" text-anchor="end" font-size="14">0</text>
<path d="M 85 175.00 H 865" stroke="#e3e8ef"/>
<text x="73" y="180.00" text-anchor="end" font-size="14">0.9</text>
<path d="M 85 96.00 H 865" stroke="#e3e8ef"/>
<text x="73" y="101.00" text-anchor="end" font-size="14">1.8</text>
<text x="85.00" y="438" text-anchor="middle" font-size="14">0.4</text>
<text x="345.00" y="438" text-anchor="middle" font-size="14">0.8</text>
<text x="475.00" y="438" text-anchor="middle" font-size="14">1</text>
<text x="605.00" y="438" text-anchor="middle" font-size="14">1.2</text>
<text x="865.00" y="438" text-anchor="middle" font-size="14">1.6</text>
<path d="M 85 96 V 412 H 865" fill="none" stroke="#49556b"/>
<text x="475" y="466" text-anchor="middle" font-size="16">Probability ratio: current / rollout policy</text>
<text transform="translate(22 254) rotate(-90)" text-anchor="middle" font-size="16">Surrogate objective</text>
<polyline points="85.00,218.89 88.90,218.36 92.80,217.84 96.70,217.31 100.60,216.78 104.50,216.26 108.40,215.73 112.30,215.20 116.20,214.68 120.10,214.15 124.00,213.62 127.90,213.10 131.80,212.57 135.70,212.04 139.60,211.52 143.50,210.99 147.40,210.46 151.30,209.94 155.20,209.41 159.10,208.88 163.00,208.36 166.90,207.83 170.80,207.30 174.70,206.78 178.60,206.25 182.50,205.72 186.40,205.20 190.30,204.67 194.20,204.14 198.10,203.62 202.00,203.09 205.90,202.56 209.80,202.04 213.70,201.51 217.60,200.98 221.50,200.46 225.40,199.93 229.30,199.40 233.20,198.88 237.10,198.35 241.00,197.82 244.90,197.30 248.80,196.77 252.70,196.24 256.60,195.72 260.50,195.19 264.40,194.66 268.30,194.14 272.20,193.61 276.10,193.08 280.00,192.56 283.90,192.03 287.80,191.50 291.70,190.98 295.60,190.45 299.50,189.92 303.40,189.40 307.30,188.87 311.20,188.34 315.10,187.82 319.00,187.29 322.90,186.76 326.80,186.24 330.70,185.71 334.60,185.18 338.50,184.66 342.40,184.13 346.30,183.60 350.20,183.08 354.10,182.55 358.00,182.02 361.90,181.50 365.80,180.97 369.70,180.44 373.60,179.92 377.50,179.39 381.40,178.86 385.30,178.34 389.20,177.81 393.10,177.28 397.00,176.76 400.90,176.23 404.80,175.70 408.70,175.18 412.60,174.65 416.50,174.12 420.40,173.60 424.30,173.07 428.20,172.54 432.10,172.02 436.00,171.49 439.90,170.96 443.80,170.44 447.70,169.91 451.60,169.38 455.50,168.86 459.40,168.33 463.30,167.80 467.20,167.28 471.10,166.75 475.00,166.22 478.90,165.70 482.80,165.17 486.70,164.64 490.60,164.12 494.50,163.59 498.40,163.06 502.30,162.54 506.20,162.01 510.10,161.48 514.00,160.96 517.90,160.43 521.80,159.90 525.70,159.38 529.60,158.85 533.50,158.32 537.40,157.80 541.30,157.27 545.20,156.74 549.10,156.22 553.00,155.69 556.90,155.16 560.80,154.64 564.70,154.11 568.60,153.58 572.50,153.06 576.40,152.53 580.30,152.00 584.20,151.48 588.10,150.95 592.00,150.42 595.90,149.90 599.80,149.37 603.70,148.84 607.60,148.67 611.50,148.67 615.40,148.67 619.30,148.67 623.20,148.67 627.10,148.67 631.00,148.67 634.90,148.67 638.80,148.67 642.70,148.67 646.60,148.67 650.50,148.67 654.40,148.67 658.30,148.67 662.20,148.67 666.10,148.67 670.00,148.67 673.90,148.67 677.80,148.67 681.70,148.67 685.60,148.67 689.50,148.67 693.40,148.67 697.30,148.67 701.20,148.67 705.10,148.67 709.00,148.67 712.90,148.67 716.80,148.67 720.70,148.67 724.60,148.67 728.50,148.67 732.40,148.67 736.30,148.67 740.20,148.67 744.10,148.67 748.00,148.67 751.90,148.67 755.80,148.67 759.70,148.67 763.60,148.67 767.50,148.67 771.40,148.67 775.30,148.67 779.20,148.67 783.10,148.67 787.00,148.67 790.90,148.67 794.80,148.67 798.70,148.67 802.60,148.67 806.50,148.67 810.40,148.67 814.30,148.67 818.20,148.67 822.10,148.67 826.00,148.67 829.90,148.67 833.80,148.67 837.70,148.67 841.60,148.67 845.50,148.67 849.40,148.67 853.30,148.67 857.20,148.67 861.10,148.67 865.00,148.67" fill="none" stroke="#1864c6" stroke-width="3"/>
<path d="M 60 502 h 24" stroke="#1864c6" stroke-width="3"/>
<text x="92" y="507" font-size="14">A=+1, clipped objective</text>
<polyline points="85.00,324.22 88.90,324.22 92.80,324.22 96.70,324.22 100.60,324.22 104.50,324.22 108.40,324.22 112.30,324.22 116.20,324.22 120.10,324.22 124.00,324.22 127.90,324.22 131.80,324.22 135.70,324.22 139.60,324.22 143.50,324.22 147.40,324.22 151.30,324.22 155.20,324.22 159.10,324.22 163.00,324.22 166.90,324.22 170.80,324.22 174.70,324.22 178.60,324.22 182.50,324.22 186.40,324.22 190.30,324.22 194.20,324.22 198.10,324.22 202.00,324.22 205.90,324.22 209.80,324.22 213.70,324.22 217.60,324.22 221.50,324.22 225.40,324.22 229.30,324.22 233.20,324.22 237.10,324.22 241.00,324.22 244.90,324.22 248.80,324.22 252.70,324.22 256.60,324.22 260.50,324.22 264.40,324.22 268.30,324.22 272.20,324.22 276.10,324.22 280.00,324.22 283.90,324.22 287.80,324.22 291.70,324.22 295.60,324.22 299.50,324.22 303.40,324.22 307.30,324.22 311.20,324.22 315.10,324.22 319.00,324.22 322.90,324.22 326.80,324.22 330.70,324.22 334.60,324.22 338.50,324.22 342.40,324.22 346.30,324.40 350.20,324.92 354.10,325.45 358.00,325.98 361.90,326.50 365.80,327.03 369.70,327.56 373.60,328.08 377.50,328.61 381.40,329.14 385.30,329.66 389.20,330.19 393.10,330.72 397.00,331.24 400.90,331.77 404.80,332.30 408.70,332.82 412.60,333.35 416.50,333.88 420.40,334.40 424.30,334.93 428.20,335.46 432.10,335.98 436.00,336.51 439.90,337.04 443.80,337.56 447.70,338.09 451.60,338.62 455.50,339.14 459.40,339.67 463.30,340.20 467.20,340.72 471.10,341.25 475.00,341.78 478.90,342.30 482.80,342.83 486.70,343.36 490.60,343.88 494.50,344.41 498.40,344.94 502.30,345.46 506.20,345.99 510.10,346.52 514.00,347.04 517.90,347.57 521.80,348.10 525.70,348.62 529.60,349.15 533.50,349.68 537.40,350.20 541.30,350.73 545.20,351.26 549.10,351.78 553.00,352.31 556.90,352.84 560.80,353.36 564.70,353.89 568.60,354.42 572.50,354.94 576.40,355.47 580.30,356.00 584.20,356.52 588.10,357.05 592.00,357.58 595.90,358.10 599.80,358.63 603.70,359.16 607.60,359.68 611.50,360.21 615.40,360.74 619.30,361.26 623.20,361.79 627.10,362.32 631.00,362.84 634.90,363.37 638.80,363.90 642.70,364.42 646.60,364.95 650.50,365.48 654.40,366.00 658.30,366.53 662.20,367.06 666.10,367.58 670.00,368.11 673.90,368.64 677.80,369.16 681.70,369.69 685.60,370.22 689.50,370.74 693.40,371.27 697.30,371.80 701.20,372.32 705.10,372.85 709.00,373.38 712.90,373.90 716.80,374.43 720.70,374.96 724.60,375.48 728.50,376.01 732.40,376.54 736.30,377.06 740.20,377.59 744.10,378.12 748.00,378.64 751.90,379.17 755.80,379.70 759.70,380.22 763.60,380.75 767.50,381.28 771.40,381.80 775.30,382.33 779.20,382.86 783.10,383.38 787.00,383.91 790.90,384.44 794.80,384.96 798.70,385.49 802.60,386.02 806.50,386.54 810.40,387.07 814.30,387.60 818.20,388.12 822.10,388.65 826.00,389.18 829.90,389.70 833.80,390.23 837.70,390.76 841.60,391.28 845.50,391.81 849.40,392.34 853.30,392.86 857.20,393.39 861.10,393.92 865.00,394.44" fill="none" stroke="#c64032" stroke-width="3"/>
<path d="M 340 502 h 24" stroke="#c64032" stroke-width="3"/>
<text x="372" y="507" font-size="14">A=-1, clipped objective</text>
</g></svg>